
<svg
  version="1.0"
  xmlns="http://www.w3.org/2000/svg"
  xmlns:xlink="http://www.w3.org/1999/xlink"
  width="2400"
  height="1800"
>
  
  <rect
    x="0"
    y="0"
    width="100%"
    height="100%"
    fill="#ffffff"
    fill-opacity="1"
  ></rect>
  <svg
    version="1.0"
    xmlns="http://www.w3.org/2000/svg"
    xmlns:xlink="http://www.w3.org/1999/xlink"
    x="0"
    y="0"
    width="2400"
    height="1800"
    viewBox="0 0 340.000000 250.000000"
    preserveAspectRatio="xMidYMid meet"
    color-interpolation-filters="sRGB"
  >
    <defs><linearGradient id="92" x1="0%" y1="0%" x2="100%" y2="0%"><stop offset="0%" stop-color="#fa71cd"/> <stop offset="100%" stop-color="#9b59b6"/></linearGradient><linearGradient id="93" x1="0%" y1="0%" x2="100%" y2="0%"><stop offset="0%" stop-color="#f9d423"/> <stop offset="100%" stop-color="#f83600"/></linearGradient><linearGradient id="94" x1="0%" y1="0%" x2="100%" y2="0%"><stop offset="0%" stop-color="#0064d2"/> <stop offset="100%" stop-color="#1cb0f6"/></linearGradient><linearGradient id="95" x1="0%" y1="0%" x2="100%" y2="0%"><stop offset="0%" stop-color="#f00978"/> <stop offset="100%" stop-color="#3f51b1"/></linearGradient><linearGradient id="96" x1="0%" y1="0%" x2="100%" y2="0%"><stop offset="0%" stop-color="#7873f5"/> <stop offset="100%" stop-color="#ec77ab"/></linearGradient><linearGradient id="97" x1="0%" y1="0%" x2="100%" y2="0%"><stop offset="0%" stop-color="#f9d423"/> <stop offset="100%" stop-color="#e14fad"/></linearGradient><linearGradient id="98" x1="0%" y1="0%" x2="100%" y2="0%"><stop offset="0%" stop-color="#009efd"/> <stop offset="100%" stop-color="#2af598"/></linearGradient><linearGradient id="99" x1="0%" y1="0%" x2="100%" y2="0%"><stop offset="0%" stop-color="#ffcc00"/> <stop offset="100%" stop-color="#00b140"/></linearGradient><linearGradient id="100" x1="0%" y1="0%" x2="100%" y2="0%"><stop offset="0%" stop-color="#d51007"/> <stop offset="100%" stop-color="#ff8177"/></linearGradient><linearGradient id="102" x1="0%" y1="0%" x2="100%" y2="0%"><stop offset="0%" stop-color="#a2b6df"/> <stop offset="100%" stop-color="#0c3483"/></linearGradient><linearGradient id="103" x1="0%" y1="0%" x2="100%" y2="0%"><stop offset="0%" stop-color="#7ac5d8"/> <stop offset="100%" stop-color="#eea2a2"/></linearGradient><linearGradient id="104" x1="0%" y1="0%" x2="100%" y2="0%"><stop offset="0%" stop-color="#00ecbc"/> <stop offset="100%" stop-color="#007adf"/></linearGradient><linearGradient id="105" x1="0%" y1="0%" x2="100%" y2="0%"><stop offset="0%" stop-color="#b88746"/> <stop offset="100%" stop-color="#fdf5a6"/></linearGradient></defs> <g fill="#1684ac" class="bordersvg b-d1" transform="translate(7.092891216278076,33.5464448052212)"><path fill-opacity="0" stroke="#1684ac" stroke-width="3" fill="#ffffff" d="M 172.9071044921875 61.29805374145508 A 91.45355224609375 91.45355224609375 0 1 0 172.9071044921875 121.60905075073242"/> <path fill-opacity="0" stroke="#1684ac" stroke-width="3" fill="#ffffff" d="M 152.9071044921875 61.29805374145508 A 91.45355224609375 91.45355224609375 0 1 1 152.9071044921875 121.60905075073242"/> <g transform="translate(20,61.29805374145508)"><g><rect stroke-width="2" class="i-icon-bg" x="0" y="0" width="285.814208984375" height="60.310997009277344" fill-opacity="0"/> </g> <g transform="translate(0,3)"><g fill-rule="" class="tp-name" transform="translate(0,0)"><g transform="scale(1.02)"><g><path d="M26.75 0L10.5 0 10.5-4.7 14.69-5.51 14.69-33.06 7.57-33.06 7.14-28.39 1.21-28.39 1.21-39.1 36.09-39.1 36.09-28.39 30.13-28.39 29.7-33.06 22.53-33.06 22.53-5.51 26.75-4.7 26.75 0ZM51.75 0L36.36 0 36.36-4.7 40.15-5.51 40.15-23.53 35.96-24.33 35.96-29.06 47.99-29.06 47.99-5.51 51.75-4.7 51.75 0ZM47.99-35.21L39.88-35.21 39.88-41.89 47.99-41.89 47.99-35.21ZM71.35 0.56L71.35 0.56Q68.67 0.56 66.76-0.5 64.86-1.56 63.57-3.57L63.57-3.57 63 0 56.24 0 56.24-36.36 52.07-37.17 52.07-41.89 64.05-41.89 64.05-25.97Q65.31-27.71 67.15-28.65 68.99-29.59 71.44-29.59L71.44-29.59Q74.95-29.59 77.41-27.7 79.87-25.81 81.16-22.37 82.45-18.93 82.45-14.29L82.45-14.29 82.45-13.72Q82.45-9.4 81.16-6.19 79.87-2.98 77.4-1.21 74.93 0.56 71.35 0.56ZM68.99-5.53L68.99-5.53Q72-5.53 73.32-7.67 74.63-9.8 74.63-13.72L74.63-13.72 74.63-14.29Q74.63-17.13 74.05-19.19 73.48-21.24 72.25-22.37 71.03-23.5 69.07-23.5L69.07-23.5Q67.3-23.5 66.04-22.67 64.78-21.83 64.05-20.41L64.05-20.41 64.05-8.27Q64.86-6.93 66.1-6.23 67.35-5.53 68.99-5.53ZM102.02 0L86.66 0 86.66-4.7 90.42-5.51 90.42-23.53 86.26-24.33 86.26-29.06 97.73-29.06 98.02-25.46 98.08-24.81Q99.15-27.18 100.73-28.39 102.32-29.59 104.52-29.59L104.52-29.59Q105.22-29.59 106.05-29.47 106.88-29.35 107.53-29.17L107.53-29.17 106.7-21.94 102.8-22.16Q101.14-22.24 100.1-21.59 99.07-20.95 98.26-19.74L98.26-19.74 98.26-5.51 102.02-4.7 102.02 0ZM123.19 0.56L123.19 0.56Q118.89 0.56 115.8-1.32 112.71-3.2 111.07-6.54 109.44-9.88 109.44-14.23L109.44-14.23 109.44-14.8Q109.44-19.12 111.07-22.46 112.71-25.81 115.79-27.7 118.86-29.59 123.13-29.59L123.13-29.59Q127.46-29.59 130.52-27.7 133.58-25.81 135.22-22.48 136.86-19.15 136.86-14.8L136.86-14.8 136.86-14.23Q136.86-9.88 135.22-6.54 133.58-3.2 130.52-1.32 127.46 0.56 123.19 0.56ZM123.19-5.45L123.19-5.45Q125.23-5.45 126.52-6.55 127.81-7.65 128.42-9.63 129.04-11.6 129.04-14.23L129.04-14.23 129.04-14.8Q129.04-17.38 128.42-19.35 127.81-21.32 126.5-22.44 125.2-23.55 123.13-23.55L123.13-23.55Q121.12-23.55 119.8-22.44 118.49-21.32 117.88-19.35 117.28-17.38 117.28-14.8L117.28-14.8 117.28-14.23Q117.28-11.6 117.88-9.61 118.49-7.63 119.8-6.54 121.12-5.45 123.19-5.45ZM156.84 0.56L156.84 0.56Q154.15 0.56 152.24-0.5 150.34-1.56 149.05-3.57L149.05-3.57 148.48 0 141.72 0 141.72-36.36 137.55-37.17 137.55-41.89 149.53-41.89 149.53-25.97Q150.79-27.71 152.63-28.65 154.47-29.59 156.92-29.59L156.92-29.59Q160.43-29.59 162.89-27.7 165.35-25.81 166.64-22.37 167.93-18.93 167.93-14.29L167.93-14.29 167.93-13.72Q167.93-9.4 166.64-6.19 165.35-2.98 162.88-1.21 160.41 0.56 156.84 0.56ZM154.47-5.53L154.47-5.53Q157.48-5.53 158.8-7.67 160.11-9.8 160.11-13.72L160.11-13.72 160.11-14.29Q160.11-17.13 159.53-19.19 158.96-21.24 157.74-22.37 156.51-23.5 154.55-23.5L154.55-23.5Q152.78-23.5 151.52-22.67 150.26-21.83 149.53-20.41L149.53-20.41 149.53-8.27Q150.34-6.93 151.59-6.23 152.83-5.53 154.47-5.53ZM188.53-13.7L173.38-13.7 173.38-19.74 188.53-19.74 188.53-13.7ZM209.2 0.56L209.2 0.56Q204.88 0.56 201.34-0.4 197.79-1.37 194.35-3.76L194.35-3.76 194.35-13.21 200.42-13.21 201.25-7.65Q202.46-6.63 204.58-6 206.71-5.37 209.2-5.37L209.2-5.37Q211.33-5.37 212.79-5.96 214.25-6.55 215.02-7.64 215.78-8.73 215.78-10.21L215.78-10.21Q215.78-11.6 215.1-12.69 214.41-13.78 212.84-14.68 211.27-15.58 208.59-16.41L208.59-16.41Q203.94-17.78 200.89-19.4 197.84-21.03 196.33-23.3 194.81-25.57 194.81-28.76L194.81-28.76Q194.81-31.93 196.57-34.36 198.33-36.79 201.44-38.19 204.56-39.58 208.64-39.64L208.64-39.64Q213.15-39.69 216.63-38.56 220.11-37.44 222.63-35.42L222.63-35.42 222.63-26.61 216.75-26.61 215.73-31.98Q214.71-32.63 212.98-33.11 211.25-33.6 209.04-33.6L209.04-33.6Q207.16-33.6 205.73-33.03 204.29-32.47 203.46-31.39 202.62-30.32 202.62-28.79L202.62-28.79Q202.62-27.47 203.35-26.49 204.07-25.51 205.78-24.64 207.49-23.77 210.49-22.77L210.49-22.77Q216.97-20.97 220.31-18.02 223.65-15.07 223.65-10.26L223.65-10.26Q223.65-6.93 221.85-4.5 220.05-2.07 216.8-0.75 213.55 0.56 209.2 0.56ZM240.84 0.56L240.84 0.56Q236.68 0.56 233.56-1.28 230.45-3.12 228.74-6.34 227.04-9.56 227.04-13.7L227.04-13.7 227.04-14.77Q227.04-19.09 228.65-22.44 230.26-25.78 233.2-27.7 236.14-29.62 240.14-29.59L240.14-29.59Q244.09-29.59 246.77-28.04 249.46-26.48 250.86-23.55 252.25-20.63 252.25-16.46L252.25-16.46 252.25-12.19 235.17-12.19 235.12-12.03Q235.28-10.12 236.07-8.63 236.87-7.14 238.32-6.3 239.77-5.45 241.83-5.45L241.83-5.45Q243.98-5.45 245.85-6 247.71-6.55 249.49-7.63L249.49-7.63 251.61-2.79Q249.81-1.34 247.08-0.39 244.36 0.56 240.84 0.56ZM235.15-17.51L235.23-17.38 244.92-17.38 244.92-18.07Q244.92-19.85 244.45-21.12 243.98-22.4 242.95-23.1 241.91-23.79 240.28-23.79L240.28-23.79Q238.72-23.79 237.64-22.97 236.57-22.16 235.97-20.73 235.36-19.31 235.15-17.51L235.15-17.51ZM269.55 0.56L269.55 0.56Q265.36 0.56 262.31-1.32 259.26-3.2 257.62-6.51 255.99-9.83 255.99-14.1L255.99-14.1 255.99-14.9Q255.99-19.2 257.65-22.5 259.32-25.81 262.35-27.7 265.39-29.59 269.49-29.59L269.49-29.59Q273.42-29.59 276.25-28.37 279.08-27.15 280.85-25.54L280.85-25.54 280.8-17.21 274.89-17.21 273.85-22.4Q273.2-23.04 272.21-23.44 271.21-23.85 270.19-23.85L270.19-23.85Q268.04-23.85 266.63-22.77 265.22-21.7 264.53-19.71 263.83-17.72 263.83-14.9L263.83-14.9 263.83-14.1Q263.83-11.12 264.61-9.2 265.39-7.28 266.69-6.36 267.99-5.45 269.6-5.45L269.6-5.45Q271.67-5.45 272.92-6.54 274.17-7.63 274.65-9.61L274.65-9.61 281.34-9.61 281.42-9.45Q280.96-6.36 279.61-4.11 278.25-1.85 275.79-0.64 273.33 0.56 269.55 0.56Z" transform="translate(-1.2100000381469727, 41.88999938964844)"/></g> </g></g> <g fill-rule="" class="tp-slogan" transform="translate(133.32710456848145,46.29899978637695)"> <g transform="scale(1, 1)"><g transform="scale(1)"><path d="M1.08-7.87L1.08 0L2.08 0L2.08-2.50L3.43-4.09L5.78 0L6.90 0L4.06-4.87L6.52-7.87L5.39-7.87L2.11-3.92L2.08-3.92L2.08-7.87ZM8.03-7.87L8.03 0L9.02 0L9.02-3.53L12.02-3.53L12.02-4.37L9.02-4.37L9.02-7.03L12.56-7.03L12.56-7.87ZM15.59-7.03L15.59 0L16.60 0L16.60-7.03L18.97-7.03L18.97-7.87L13.21-7.87L13.21-7.03ZM18.82-0.60C18.82-0.38 18.89-0.21 19.03-0.07C19.17 0.07 19.34 0.14 19.54 0.14C19.73 0.14 19.89 0.07 20.03-0.07C20.17-0.21 20.24-0.38 20.24-0.60C20.24-0.83 20.17-1.02 20.03-1.16C19.89-1.30 19.73-1.37 19.54-1.37C19.34-1.37 19.17-1.30 19.03-1.16C18.89-1.02 18.82-0.83 18.82-0.60Z" transform="translate(-1.08, 7.872)"/></g></g></g></g></g></g><defs v-gra="od"/>
  </svg>
</svg>


